<svg width="501" height="180" viewBox="0 0 501 180" fill="none" xmlns="http://www.w3.org/2000/svg">
<path d="M463.919 179.659C452.964 179.659 444.312 175.777 437.962 168.011C432.243 160.881 429.383 152.275 429.383 142.193C429.383 137.925 429.989 133.656 431.201 129.387C432.461 125.073 434.448 121.076 437.163 117.398C439.925 113.674 443.294 110.813 447.269 108.815C451.244 106.771 455.655 105.749 460.502 105.749C470.051 105.749 477.491 109.064 482.823 115.695C484.81 118.102 486.361 120.736 487.476 123.597V91.8528C487.476 88.0835 487.064 85.3587 486.24 83.6785C485.465 81.9982 483.72 80.8401 481.005 80.2043C484.641 77.9791 488.518 76.8211 492.639 76.7302C498.213 76.7302 501 80.0908 501 86.812V178.706H487.476V171.144C484.374 173.915 480.69 176.026 476.425 177.48C472.208 178.933 468.039 179.659 463.919 179.659ZM468.281 176.594C475.94 176.594 482.338 173.846 487.476 168.351V131.022C486.458 125.572 484.35 120.826 481.151 116.785C476.4 111.29 471.141 108.542 465.373 108.542C458.393 108.542 453.037 112.016 449.305 118.965C445.863 125.686 444.142 133.383 444.142 142.057C444.142 142.738 444.215 145.622 444.361 150.708C444.506 155.795 446.857 161.721 451.413 168.488C455.533 173.892 461.156 176.594 468.281 176.594Z" fill="#493535"/>
<path d="M389.423 178.706H375.899V121.825C375.899 118.056 375.511 115.331 374.736 113.651C373.96 111.971 372.215 110.813 369.501 110.177C373.136 107.952 376.99 106.794 381.061 106.703C386.636 106.703 389.423 110.063 389.423 116.785V124.891C390.634 121.576 392.258 118.556 394.294 115.831C396.33 113.106 398.802 110.904 401.71 109.223C404.667 107.543 408.036 106.703 411.817 106.703C416.906 106.703 421.051 107.407 424.25 108.815C427.449 110.222 429.751 111.971 431.157 114.06C432.417 115.876 433.047 117.693 433.047 119.509C433.047 119.782 432.999 120.486 432.902 121.621C432.805 122.756 431.884 124.051 430.139 125.504C428.442 126.912 426.043 127.616 422.941 127.616C423.28 125.845 423.45 124.187 423.45 122.643C423.45 119.192 422.311 116.081 420.033 113.311C417.754 110.495 414.41 109.087 409.999 109.087C404.182 109.087 399.384 111.88 395.603 117.466C392.501 122.461 390.441 127.661 389.423 133.065V178.706Z" fill="#493535"/>
<path d="M360.369 178.706C354.794 178.706 352.007 175.345 352.007 168.624V155.613C350.505 160.291 348.008 164.514 344.518 168.283C337.781 175.186 329.613 178.637 320.016 178.637C313.666 178.637 308.431 176.844 304.311 173.256C299.803 169.123 297.549 164.105 297.549 158.202C297.549 154.296 298.64 150.617 300.821 147.166C303.923 142.534 308.31 139.446 313.981 137.902C321.785 135.858 328.62 134.405 334.485 133.542C337.393 133.088 340.374 132.429 343.428 131.567C346.53 130.704 348.929 129.319 350.626 127.411C352.225 125.231 353.025 122.87 353.025 120.327C353.025 117.057 351.765 114.264 349.244 111.948C346.53 109.723 343.331 108.61 339.647 108.61C336.787 108.61 334.606 109.201 333.103 110.381C330.631 112.334 329.395 114.968 329.395 118.283C329.395 120.781 330.122 123.029 331.576 125.027C328.377 125.027 325.905 124.391 324.16 123.12C322.124 121.667 321.107 119.805 321.107 117.534C321.107 116.081 321.688 114.537 322.851 112.902C324.015 111.267 326.026 109.836 328.886 108.61C331.795 107.339 335.527 106.703 340.083 106.703C347.063 106.703 352.54 107.884 356.515 110.245C360.247 112.47 362.235 115.649 362.477 119.782C362.477 122.552 361.532 125.073 359.642 127.343C357.121 130.159 353.898 131.93 349.971 132.657C343.816 133.746 336.593 135.313 328.305 137.357C322.682 138.765 318.271 141.626 315.072 145.94C312.309 149.982 310.927 154.455 310.927 159.36C310.927 163.674 312.26 167.602 314.926 171.144C317.544 174.323 320.913 175.913 325.033 175.913C327.65 175.913 330.316 175.322 333.031 174.142C341.368 170.372 346.99 164.151 349.899 155.477C351.304 151.208 352.007 146.712 352.007 141.989V137.97C357.436 137.289 361.944 134.95 365.531 130.954V163.583C365.531 167.307 365.919 170.032 366.694 171.757C367.47 173.438 369.239 174.573 372.002 175.163C368.367 177.389 364.489 178.569 360.369 178.706Z" fill="#493535"/>
<path d="M294.234 178.706H280.71V130.136C280.71 123.733 279.837 118.919 278.092 115.695C275.717 111.38 271.234 109.223 264.642 109.223C261.685 109.223 258.704 109.927 255.699 111.335C252.742 112.743 250.076 114.877 247.701 117.738C244.502 121.78 242.417 126.526 241.448 131.975V178.706H227.924V121.825C227.924 118.056 227.536 115.331 226.761 113.651C225.985 111.971 224.24 110.813 221.526 110.177C225.161 107.952 229.015 106.794 233.086 106.703C238.661 106.703 241.448 110.063 241.448 116.785V124.55C242.563 121.689 244.09 119.055 246.028 116.648C251.457 110.018 258.898 106.703 268.35 106.703C273.1 106.703 277.438 107.429 281.364 108.883C285.291 110.336 288.417 112.697 290.744 115.967C293.07 119.192 294.234 123.483 294.234 128.842V178.706Z" fill="#493535"/>
<path d="M180.693 178.706H167.17V121.825C167.17 118.056 166.782 115.331 166.006 113.651C165.231 111.971 163.486 110.813 160.771 110.177C164.407 107.952 168.26 106.794 172.332 106.703C177.906 106.703 180.693 110.063 180.693 116.785V124.891C181.905 121.576 183.529 118.556 185.565 115.831C187.601 113.106 190.073 110.904 192.981 109.223C195.938 107.543 199.307 106.703 203.087 106.703C208.177 106.703 212.321 107.407 215.52 108.815C218.72 110.222 221.022 111.971 222.428 114.06C223.688 115.876 224.318 117.693 224.318 119.509C224.318 119.782 224.27 120.486 224.173 121.621C224.076 122.756 223.155 124.051 221.41 125.504C219.713 126.912 217.314 127.616 214.212 127.616C214.551 125.845 214.721 124.187 214.721 122.643C214.721 119.192 213.582 116.081 211.303 113.311C209.025 110.495 205.681 109.087 201.27 109.087C195.453 109.087 190.654 111.88 186.874 117.466C183.771 122.461 181.711 127.661 180.693 133.065V178.706Z" fill="#493535"/>
<path d="M127.718 180C120.399 180 113.25 178.683 106.27 176.049C99.3382 173.415 93.6185 169.351 89.1106 163.856C84.6512 158.315 82.4215 151.253 82.4215 142.67C82.4215 131.044 86.9779 121.826 96.0906 115.014C104.088 108.837 113.565 105.749 124.519 105.749C135.474 105.749 144.102 108.519 150.403 114.06C156.753 119.6 160.582 127.23 161.891 136.948L162.036 137.97H140.297C129.342 137.97 120.181 140.604 112.813 145.872C106.318 150.686 102.901 156.93 102.562 164.605C108.475 173.642 117.2 178.161 128.736 178.161C134.892 178.161 140.03 176.821 144.15 174.142C148.27 171.417 152.512 166.535 156.874 159.496L161.019 162.561C157.626 167.965 152.851 172.302 146.695 175.572C141.169 178.524 134.844 180 127.718 180ZM100.744 161.403C101.907 154.5 105.518 148.824 111.577 144.373C119.187 138.833 128.761 136.063 140.297 136.063H151.13C150.015 128.751 147.204 122.348 142.696 116.853C137.607 110.631 131.33 107.52 123.865 107.52C119.26 107.52 115.261 108.61 111.868 110.79C108.475 112.97 105.664 115.786 103.434 119.237C101.204 122.688 99.5321 126.435 98.4172 130.477C97.3024 134.473 96.7449 138.311 96.7449 141.989C96.7449 149.8 98.0779 156.272 100.744 161.403Z" fill="#493535"/>
<path d="M43.4792 179.659C39.3591 179.659 35.1663 178.933 30.9008 177.48C26.6837 176.026 23.0241 173.915 19.9219 171.144V178.706H6.39828V91.8528C6.39828 88.0835 6.01051 85.3587 5.23496 83.6785C4.45941 81.9982 2.71442 80.8401 0 80.2043C3.63539 77.9791 7.51313 76.8211 11.6332 76.7302C17.159 76.7302 19.9219 80.0908 19.9219 86.812V123.597C21.0368 120.736 22.5636 118.102 24.5025 115.695C29.9314 109.064 37.396 105.749 46.8965 105.749C51.7437 105.749 56.1546 106.771 60.1293 108.815C64.104 110.813 67.4485 113.674 70.163 117.398C72.9259 121.076 74.9132 125.073 76.125 129.387C77.3853 133.656 78.0154 137.925 78.0154 142.193C78.0154 152.275 75.1556 160.881 69.4359 168.011C63.0861 175.777 54.4339 179.659 43.4792 179.659ZM39.1168 176.594C40.9587 176.594 43.455 176.253 46.6057 175.572C49.8048 174.846 52.9312 172.484 55.985 168.488C60.8321 161.267 63.2557 152.457 63.2557 142.057C63.2557 133.383 61.535 125.686 58.0935 118.965C54.0703 112.016 48.7142 108.542 42.0251 108.542C36.2569 108.542 30.9977 111.29 26.2475 116.785C23.0484 120.826 20.9398 125.572 19.9219 131.022V168.351C22.9756 171.621 26.7322 173.96 31.1916 175.368C33.8091 176.185 36.4508 176.594 39.1168 176.594Z" fill="#493535"/>
<path d="M362.419 103.27C355.1 103.27 347.95 101.953 340.97 99.3188C334.039 96.6848 328.319 92.6203 323.811 87.1253C319.352 81.5849 317.122 74.5231 317.122 65.94C317.122 54.3142 321.679 45.0953 330.791 38.2833C338.789 32.1071 348.265 29.019 359.22 29.019C370.175 29.019 378.803 31.7893 385.104 37.3297C391.454 42.8701 395.283 50.4995 396.592 60.218L396.737 61.2397H374.998C364.043 61.2397 354.882 63.8737 347.514 69.1417C341.019 73.9555 337.602 80.1998 337.262 87.8746C343.176 96.9119 351.901 101.43 363.437 101.43C369.593 101.43 374.731 100.091 378.851 97.4114C382.971 94.6866 387.212 89.8047 391.575 82.7656L395.719 85.831C392.326 91.2352 387.552 95.5722 381.396 98.8419C375.87 101.794 369.544 103.27 362.419 103.27ZM335.445 84.673C336.608 77.7702 340.219 72.0935 346.278 67.643C353.888 62.1026 363.461 59.3324 374.998 59.3324H385.831C384.716 52.0209 381.905 45.6176 377.397 40.1226C372.307 33.901 366.03 30.7902 358.566 30.7902C353.961 30.7902 349.962 31.8801 346.569 34.0599C343.176 36.2398 340.364 39.0554 338.135 42.5068C335.905 45.9582 334.233 49.7048 333.118 53.7466C332.003 57.7429 331.446 61.5803 331.446 65.2588C331.446 73.0699 332.779 79.5413 335.445 84.673Z" fill="#493535"/>
<path d="M311.262 101.975H297.738V45.0953C297.738 41.326 297.351 38.6012 296.575 36.9209C295.799 35.2406 294.055 34.0826 291.34 33.4468C294.975 31.2216 298.829 30.0635 302.901 29.9727C308.475 29.9727 311.262 33.3333 311.262 40.0545V101.975ZM302.755 20.9128C299.653 20.9128 297.326 20.0726 295.775 18.3923C294.273 16.6666 293.521 14.7139 293.521 12.534C293.521 10.3088 294.297 8.356 295.848 6.67571C297.399 4.95001 299.701 4.08716 302.755 4.08716C305.809 4.08716 308.087 4.95001 309.59 6.67571C311.141 8.356 311.941 10.2861 311.989 12.4659C311.989 14.6912 311.214 16.6666 309.662 18.3923C308.111 20.0726 305.809 20.9128 302.755 20.9128Z" fill="#493535"/>
<path d="M284.171 101.975H270.647V15.1226C270.647 11.3533 270.259 8.62852 269.484 6.94823C268.708 5.26794 266.963 4.1099 264.249 3.47411C267.884 1.24886 271.762 0.0908265 275.882 0C281.408 0 284.171 3.36058 284.171 10.0817V101.975Z" fill="#493535"/>
<path d="M259.988 101.975H246.465V45.0953C246.465 41.326 246.077 38.6012 245.301 36.9209C244.526 35.2406 242.781 34.0826 240.066 33.4468C243.702 31.2216 247.555 30.0635 251.627 29.9727C257.201 29.9727 259.988 33.3333 259.988 40.0545V101.975ZM251.482 20.9128C248.379 20.9128 246.053 20.0726 244.502 18.3923C242.999 16.6666 242.248 14.7139 242.248 12.534C242.248 10.3088 243.023 8.356 244.574 6.67571C246.125 4.95001 248.428 4.08716 251.482 4.08716C254.535 4.08716 256.813 4.95001 258.316 6.67571C259.867 8.356 260.667 10.2861 260.715 12.4659C260.715 14.6912 259.94 16.6666 258.389 18.3923C256.838 20.0726 254.535 20.9128 251.482 20.9128Z" fill="#493535"/>
<path d="M233.988 101.975H220.464V53.4059C220.464 47.0026 219.568 42.1888 217.774 38.9645C215.447 34.6502 210.988 32.4931 204.396 32.4931C201.439 32.4931 198.458 33.197 195.453 34.6048C192.448 36.0126 189.782 38.147 187.455 41.0081C182.947 46.821 180.62 53.8146 180.475 61.989V101.975H166.951V53.4059C166.951 47.0026 166.079 42.1888 164.334 38.9645C161.959 34.6502 157.475 32.4931 150.883 32.4931C147.926 32.4931 144.945 33.197 141.94 34.6048C138.935 36.0126 136.269 38.147 133.942 41.0081C130.743 45.0499 128.634 49.7955 127.616 55.2451V101.975H114.093V45.0953C114.093 41.326 113.705 38.6012 112.93 36.9209C112.154 35.2406 110.409 34.0826 107.695 33.4468C111.33 31.2215 115.208 30.0635 119.328 29.9727C124.854 29.9727 127.616 33.3332 127.616 40.0544V47.8201C128.731 44.959 130.258 42.3251 132.197 39.9182C137.674 33.2878 145.115 29.9727 154.518 29.9727C159.075 29.9727 163.243 30.6311 167.024 31.9481C170.805 33.2651 173.883 35.3995 176.258 38.3514C178.633 41.3033 180.015 45.1861 180.402 49.9999C181.566 46.3214 183.335 42.9608 185.71 39.9182C191.187 33.2878 198.628 29.9727 208.031 29.9727C212.781 29.9727 217.12 30.6993 221.046 32.1525C224.972 33.6057 228.099 35.9672 230.425 39.237C232.8 42.4613 233.988 46.7529 233.988 52.1116V101.975Z" fill="#493535"/>
<path d="M74.6419 103.27C67.3226 103.27 60.173 101.953 53.1931 99.3188C46.2616 96.6848 40.542 92.6203 36.0341 87.1253C31.5747 81.5849 29.345 74.5231 29.345 65.94C29.345 54.3142 33.9013 45.0953 43.014 38.2833C51.0119 32.1071 60.4881 29.019 71.4427 29.019C82.3974 29.019 91.0254 31.7893 97.3267 37.3297C103.677 42.8701 107.506 50.4995 108.815 60.218L108.96 61.2397H87.2203C76.2657 61.2397 67.1045 63.8737 59.7368 69.1417C53.2416 73.9555 49.8243 80.1998 49.485 87.8746C55.3986 96.9119 64.1235 101.43 75.6598 101.43C81.8157 101.43 86.9537 100.091 91.0738 97.4114C95.1939 94.6866 99.4352 89.8047 103.798 82.7656L107.942 85.831C104.549 91.2352 99.7745 95.5722 93.6186 98.8419C88.0928 101.794 81.7672 103.27 74.6419 103.27ZM47.6673 84.673C48.8306 77.7702 52.4418 72.0935 58.5008 67.643C66.1108 62.1026 75.684 59.3324 87.2203 59.3324H98.0538C96.9389 52.0209 94.1276 45.6176 89.6197 40.1226C84.5301 33.901 78.253 30.7902 70.7884 30.7902C66.1836 30.7902 62.1846 31.8801 58.7916 34.0599C55.3986 36.2398 52.5872 39.0554 50.3575 42.5068C48.1278 45.9582 46.4555 49.7048 45.3407 53.7466C44.2258 57.7429 43.6684 61.5803 43.6684 65.2588C43.6684 73.0699 45.0014 79.5413 47.6673 84.673Z" fill="#493535"/>
</svg>
