<svg width="908" height="356" viewBox="0 0 908 356" fill="none" xmlns="http://www.w3.org/2000/svg">
<path d="M840.064 355.224C820.238 355.224 804.578 347.557 793.086 332.223C782.734 318.145 777.558 301.152 777.558 281.246C777.558 272.816 778.654 264.387 780.847 255.958C783.128 247.44 786.725 239.549 791.638 232.285C796.639 224.932 802.736 219.283 809.929 215.337C817.123 211.302 825.106 209.285 833.879 209.285C851.162 209.285 864.628 215.831 874.278 228.923C877.875 233.675 880.682 238.876 882.7 244.525V181.845C882.7 174.403 881.955 169.022 880.463 165.705C879.059 162.387 875.901 160.1 870.988 158.845C877.568 154.451 884.586 152.164 892.043 151.985C902.132 151.985 907.176 158.621 907.176 171.892V353.341H882.7V338.411C877.086 343.881 870.418 348.05 862.698 350.92C855.066 353.789 847.521 355.224 840.064 355.224ZM847.96 349.171C861.821 349.171 873.401 343.746 882.7 332.896V259.186C880.858 248.426 877.042 239.055 871.252 231.075C862.654 220.224 853.136 214.799 842.696 214.799C830.063 214.799 820.369 221.659 813.614 235.379C807.385 248.65 804.271 263.849 804.271 280.977C804.271 282.322 804.403 288.016 804.666 298.059C804.929 308.102 809.184 319.804 817.43 333.165C824.887 343.836 835.064 349.171 847.96 349.171Z" fill="#493535"/>
<path d="M705.234 353.341H680.758V241.028C680.758 233.585 680.056 228.205 678.652 224.887C677.249 221.57 674.091 219.283 669.178 218.028C675.757 213.634 682.732 211.347 690.101 211.168C700.19 211.168 705.234 217.803 705.234 231.075V247.081C707.427 240.535 710.366 234.572 714.051 229.192C717.735 223.811 722.21 219.462 727.473 216.144C732.825 212.827 738.922 211.168 745.765 211.168C754.976 211.168 762.477 212.558 768.267 215.337C774.057 218.117 778.224 221.57 780.768 225.694C783.049 229.281 784.19 232.868 784.19 236.455C784.19 236.993 784.102 238.383 783.927 240.625C783.751 242.866 782.084 245.422 778.926 248.291C775.856 251.071 771.513 252.461 765.898 252.461C766.513 248.964 766.82 245.691 766.82 242.642C766.82 235.827 764.758 229.685 760.635 224.215C756.511 218.655 750.458 215.875 742.475 215.875C731.947 215.875 723.262 221.39 716.42 232.42C710.805 242.284 707.076 252.551 705.234 263.222V353.341Z" fill="#493535"/>
<path d="M652.65 353.341C642.561 353.341 637.517 346.705 637.517 333.434V307.743C634.797 316.979 630.279 325.319 623.963 332.761C611.768 346.391 596.986 353.206 579.616 353.206C568.123 353.206 558.649 349.664 551.192 342.58C543.033 334.42 538.954 324.512 538.954 312.855C538.954 305.143 540.928 297.879 544.875 291.065C550.49 281.918 558.429 275.82 568.694 272.772C582.818 268.736 595.188 265.867 605.803 264.163C611.066 263.267 616.462 261.966 621.989 260.263C627.603 258.559 631.946 255.824 635.016 252.058C637.911 247.753 639.359 243.091 639.359 238.069C639.359 231.613 637.078 226.098 632.516 221.525C627.603 217.131 621.813 214.934 615.146 214.934C609.97 214.934 606.022 216.1 603.302 218.431C598.828 222.287 596.591 227.488 596.591 234.034C596.591 238.966 597.907 243.404 600.539 247.35C594.749 247.35 590.275 246.095 587.117 243.584C583.432 240.714 581.59 237.038 581.59 232.554C581.59 229.685 582.642 226.636 584.748 223.408C586.853 220.18 590.494 217.355 595.67 214.934C600.934 212.423 607.689 211.168 615.935 211.168C628.568 211.168 638.482 213.499 645.675 218.162C652.43 222.556 656.027 228.833 656.466 236.993C656.466 242.463 654.755 247.44 651.334 251.923C646.772 257.483 640.938 260.98 633.832 262.415C622.69 264.567 609.619 267.66 594.617 271.696C584.441 274.475 576.458 280.125 570.667 288.643C565.667 296.624 563.167 305.457 563.167 315.141C563.167 323.66 565.579 331.416 570.404 338.411C575.142 344.688 581.239 347.826 588.696 347.826C593.433 347.826 598.258 346.66 603.171 344.329C618.26 336.886 628.437 324.601 633.7 307.474C636.245 299.045 637.517 290.168 637.517 280.842V272.906C647.342 271.561 655.501 266.943 661.993 259.052V323.481C661.993 330.834 662.695 336.214 664.098 339.621C665.502 342.939 668.704 345.181 673.705 346.347C667.125 350.74 660.107 353.072 652.65 353.341Z" fill="#493535"/>
<path d="M532.953 353.341H508.476V257.438C508.476 244.794 506.897 235.289 503.739 228.923C499.44 220.404 491.325 216.144 479.394 216.144C474.043 216.144 468.648 217.534 463.208 220.314C457.857 223.094 453.032 227.308 448.733 232.958C442.943 240.938 439.171 250.309 437.416 261.07V353.341H412.94V241.028C412.94 233.585 412.238 228.205 410.835 224.887C409.431 221.57 406.273 219.283 401.36 218.028C407.94 213.634 414.914 211.347 422.283 211.168C432.372 211.168 437.416 217.803 437.416 231.075V246.408C439.434 240.759 442.197 235.558 445.707 230.806C455.532 217.714 468.999 211.168 486.106 211.168C494.703 211.168 502.555 212.602 509.661 215.472C516.767 218.341 522.425 223.004 526.636 229.461C530.847 235.827 532.953 244.301 532.953 254.882V353.341Z" fill="#493535"/>
<path d="M327.458 353.341H302.982V241.028C302.982 233.585 302.28 228.205 300.876 224.887C299.472 221.57 296.314 219.283 291.401 218.028C297.981 213.634 304.955 211.347 312.325 211.168C322.413 211.168 327.458 217.803 327.458 231.075V247.081C329.651 240.535 332.59 234.572 336.274 229.192C339.959 223.811 344.433 219.462 349.697 216.144C355.048 212.827 361.146 211.168 367.988 211.168C377.2 211.168 384.701 212.558 390.491 215.337C396.281 218.117 400.448 221.57 402.992 225.694C405.273 229.281 406.413 232.868 406.413 236.455C406.413 236.993 406.326 238.383 406.15 240.625C405.975 242.866 404.308 245.422 401.15 248.291C398.079 251.071 393.737 252.461 388.122 252.461C388.736 248.964 389.043 245.691 389.043 242.642C389.043 235.827 386.982 229.685 382.858 224.215C378.735 218.655 372.682 215.875 364.699 215.875C354.171 215.875 345.486 221.39 338.643 232.42C333.029 242.284 329.3 252.551 327.458 263.222V353.341Z" fill="#493535"/>
<path d="M231.579 355.897C218.332 355.897 205.392 353.296 192.76 348.096C180.214 342.895 169.862 334.869 161.704 324.019C153.633 313.079 149.597 299.135 149.597 282.187C149.597 259.232 157.844 241.028 174.337 227.578C188.812 215.383 205.963 209.285 225.789 209.285C245.616 209.285 261.232 214.755 272.636 225.695C284.129 236.635 291.059 251.699 293.428 270.889L293.691 272.906H254.345C234.518 272.906 217.938 278.107 204.603 288.509C192.847 298.014 186.662 310.344 186.048 325.498C196.751 343.343 212.542 352.265 233.422 352.265C244.563 352.265 253.862 349.62 261.319 344.329C268.776 338.949 276.453 329.309 284.348 315.41L291.849 321.463C285.708 332.134 277.067 340.698 265.925 347.154C255.924 352.983 244.476 355.897 231.579 355.897ZM182.759 319.177C184.864 305.547 191.4 294.338 202.366 285.55C216.139 274.61 233.466 269.14 254.345 269.14H273.952C271.935 254.703 266.846 242.06 258.688 231.209C249.476 218.925 238.115 212.782 224.605 212.782C216.271 212.782 209.033 214.934 202.892 219.238C196.751 223.543 191.663 229.102 187.627 235.917C183.592 242.732 180.565 250.13 178.548 258.111C176.53 266.002 175.521 273.579 175.521 280.842C175.521 296.266 177.933 309.044 182.759 319.177Z" fill="#493535"/>
<path d="M79.1158 355.224C71.6589 355.224 64.0704 353.789 56.3503 350.92C48.7179 348.05 42.0944 343.881 36.4798 338.411V353.341H12.0035V181.845C12.0035 174.403 11.3017 169.022 9.89802 165.705C8.49436 162.387 5.33614 160.1 0.42334 158.845C7.00298 154.451 14.0213 152.164 21.4782 151.985C31.4792 151.985 36.4798 158.621 36.4798 171.892V244.525C38.4975 238.876 41.261 233.675 44.7701 228.923C54.5957 215.831 68.1059 209.285 85.3007 209.285C94.0735 209.285 102.057 211.302 109.251 215.337C116.444 219.283 122.498 224.932 127.41 232.285C132.411 239.549 136.008 247.44 138.201 255.958C140.482 264.387 141.622 272.816 141.622 281.246C141.622 301.152 136.446 318.145 126.094 332.223C114.602 347.557 98.9424 355.224 79.1158 355.224ZM71.2202 349.171C74.5539 349.171 79.0719 348.499 84.7743 347.154C90.5644 345.719 96.2229 341.056 101.75 333.165C110.523 318.907 114.909 301.511 114.909 280.977C114.909 263.849 111.795 248.65 105.566 235.379C98.2845 221.659 88.5905 214.799 76.4839 214.799C66.0443 214.799 56.5257 220.224 47.9283 231.075C42.1382 239.055 38.3221 248.426 36.4798 259.186V332.896C42.0066 339.352 48.8056 343.97 56.8766 346.75C61.614 348.364 66.3952 349.171 71.2202 349.171Z" fill="#493535"/>
<path d="M656.361 204.389C643.114 204.389 630.174 201.788 617.541 196.587C604.996 191.387 594.644 183.361 586.485 172.511C578.414 161.571 574.378 147.627 574.378 130.679C574.378 107.724 582.625 89.5204 599.118 76.0697C613.593 63.8745 630.744 57.7769 650.571 57.7769C670.397 57.7769 686.013 63.2468 697.418 74.1866C708.91 85.1265 715.841 100.191 718.209 119.381L718.472 121.398H679.126C659.3 121.398 642.719 126.599 629.384 137.001C617.629 146.506 611.444 158.836 610.83 173.99C621.532 191.835 637.324 200.757 658.203 200.757C669.345 200.757 678.644 198.112 686.101 192.821C693.558 187.441 701.234 177.801 709.129 163.902L716.63 169.955C710.489 180.626 701.848 189.19 690.706 195.646C680.705 201.475 669.257 204.389 656.361 204.389ZM607.54 167.669C609.645 154.039 616.181 142.83 627.147 134.042C640.92 123.102 658.247 117.632 679.126 117.632H698.734C696.716 103.195 691.628 90.5516 683.469 79.7014C674.257 67.4165 662.896 61.274 649.386 61.274C641.052 61.274 633.814 63.4261 627.673 67.7303C621.532 72.0345 616.444 77.5941 612.409 84.4091C608.373 91.2241 605.347 98.622 603.329 106.603C601.311 114.494 600.302 122.071 600.302 129.334C600.302 144.758 602.715 157.536 607.54 167.669Z" fill="#493535"/>
<path d="M563.772 201.833H539.296V89.5202C539.296 82.0775 538.594 76.6973 537.19 73.3794C535.787 70.0616 532.629 67.775 527.716 66.5196C534.295 62.1257 541.27 59.8391 548.639 59.6598C558.728 59.6598 563.772 66.2954 563.772 79.5667V201.833ZM548.376 41.7704C542.761 41.7704 538.55 40.1115 535.743 36.7937C533.023 33.3862 531.664 29.5304 531.664 25.2262C531.664 20.8323 533.067 16.9764 535.875 13.6586C538.682 10.2511 542.849 8.54736 548.376 8.54736C553.903 8.54736 558.026 10.2511 560.746 13.6586C563.553 16.9764 565 20.7874 565.088 25.0916C565.088 29.4855 563.685 33.3862 560.877 36.7937C558.07 40.1115 553.903 41.7704 548.376 41.7704Z" fill="#493535"/>
<path d="M514.74 201.833H490.264V30.3375C490.264 22.8948 489.562 17.5145 488.158 14.1967C486.755 10.8789 483.596 8.59227 478.684 7.33688C485.263 2.943 492.282 0.656393 499.738 0.477051C509.739 0.477051 514.74 7.1127 514.74 20.384V201.833Z" fill="#493535"/>
<path d="M470.972 201.833H446.496V89.5202C446.496 82.0775 445.794 76.6973 444.391 73.3794C442.987 70.0616 439.829 67.775 434.916 66.5196C441.496 62.1257 448.47 59.8391 455.839 59.6598C465.928 59.6598 470.972 66.2954 470.972 79.5667V201.833ZM455.576 41.7704C449.961 41.7704 445.75 40.1115 442.943 36.7937C440.224 33.3862 438.864 29.5304 438.864 25.2262C438.864 20.8323 440.267 16.9764 443.075 13.6586C445.882 10.2511 450.049 8.54736 455.576 8.54736C461.103 8.54736 465.226 10.2511 467.946 13.6586C470.753 16.9764 472.201 20.7874 472.288 25.0916C472.288 29.4855 470.885 33.3862 468.077 36.7937C465.27 40.1115 461.103 41.7704 455.576 41.7704Z" fill="#493535"/>
<path d="M423.915 201.833H399.439V105.93C399.439 93.2865 397.816 83.7814 394.57 77.4148C390.359 68.896 382.288 64.6366 370.357 64.6366C365.005 64.6366 359.61 66.0265 354.171 68.8063C348.732 71.5861 343.907 75.8007 339.696 81.4499C331.537 92.9278 327.326 106.737 327.063 122.878V201.833H302.586V105.93C302.586 93.2865 301.007 83.7814 297.849 77.4148C293.55 68.896 285.436 64.6366 273.504 64.6366C268.153 64.6366 262.758 66.0265 257.319 68.8063C251.879 71.5861 247.054 75.8007 242.843 81.4499C237.053 89.4307 233.237 98.8013 231.395 109.562V201.833H206.919V89.5203C206.919 82.0776 206.217 76.6974 204.813 73.3796C203.409 70.0617 200.251 67.7751 195.338 66.5197C201.918 62.1259 208.936 59.8393 216.393 59.6599C226.394 59.6599 231.395 66.2956 231.395 79.5669V94.9006C233.413 89.2513 236.176 84.0504 239.685 79.2978C249.598 66.2059 263.065 59.6599 280.084 59.6599C288.331 59.6599 295.875 60.9601 302.718 63.5606C309.561 66.1611 315.132 70.3756 319.43 76.2042C323.729 82.0328 326.229 89.6997 326.931 99.2048C329.037 91.9414 332.239 85.3058 336.537 79.2978C346.451 66.2059 359.917 59.6599 376.936 59.6599C385.534 59.6599 393.385 61.0946 400.491 63.9641C407.597 66.8336 413.256 71.4965 417.467 77.9528C421.766 84.3194 423.915 92.7933 423.915 103.374V201.833Z" fill="#493535"/>
<path d="M135.516 204.389C122.269 204.389 109.33 201.788 96.6966 196.587C84.1514 191.387 73.7995 183.361 65.6407 172.511C57.5697 161.571 53.5342 147.627 53.5342 130.679C53.5342 107.724 61.7807 89.5204 78.2736 76.0697C92.7488 63.8745 109.9 57.7769 129.726 57.7769C149.553 57.7769 165.169 63.2468 176.573 74.1866C188.066 85.1265 194.996 100.191 197.365 119.381L197.628 121.398H158.282C138.455 121.398 121.875 126.599 108.54 137.001C96.7843 146.506 90.5995 158.836 89.9854 173.99C100.688 191.835 116.479 200.757 137.359 200.757C148.5 200.757 157.799 198.112 165.256 192.821C172.713 187.441 180.39 177.801 188.285 163.902L195.786 169.955C189.645 180.626 181.004 189.19 169.862 195.646C159.861 201.475 148.413 204.389 135.516 204.389ZM86.6956 167.669C88.801 154.039 95.3368 142.83 106.303 134.042C120.076 123.102 137.403 117.632 158.282 117.632H177.889C175.872 103.195 170.783 90.5516 162.625 79.7014C153.413 67.4165 142.052 61.274 128.542 61.274C120.208 61.274 112.97 63.4261 106.829 67.7303C100.688 72.0345 95.6 77.5941 91.5645 84.4091C87.529 91.2241 84.5023 98.622 82.4846 106.603C80.4668 114.494 79.458 122.071 79.458 129.334C79.458 144.758 81.8705 157.536 86.6956 167.669Z" fill="#493535"/>
</svg>
